<?xml version="1.0" encoding="UTF-8"?><svg xmlns="http://www.w3.org/2000/svg" xmlns:xlink="http://www.w3.org/1999/xlink" height="499.3" preserveAspectRatio="xMidYMid meet" version="1.0" viewBox="-0.8 -4.0 385.4 499.3" width="385.4" zoomAndPan="magnify"><g id="change1_1"><path d="M112.51,123.5c1.23,30.78,1.23,41.87-6.16,57.87c-7.39,16.01-60.34,13.54-70.19,12.31 c-9.85-1.23-8.62-6.16-14.78-12.31c-6.16-6.16-7.39-22.16-6.16-29.55c1.23-7.39,0-38.17,0-48.02s6.16-14.78,6.16-16.01 c0-1.23-2.46-2.46-4.93-6.16s-2.46-17.24,6.16-25.86s29.5-6.16,45.56-6.16c18.47,0,28.32,0,34.48,12.31s-4.93,19.7,0,20.93 C107.59,84.09,111.28,92.71,112.51,123.5z M297.21,77.94c4.93-2.46,8.62-16.01,2.46-23.4c-6.16-7.39-16.01-7.39-24.63-6.16 c-8.62,1.23-19.7,1.23-24.63,1.23c-17.28,0-33.25-6.16-45.56,2.46s-11.08,23.4-6.16,25.86s3.69,3.69,0,7.39 c-3.69,3.69-7.39,22.16-7.39,36.94s-6.16,27.09-6.16,36.94c0,9.85-4.93,22.16-1.23,34.48c3.69,12.31,16.01,20.93,43.1,17.24 c27.09-3.69,60.34,1.23,64.03-17.24s9.85-80.04,8.62-96.04C298.44,81.63,292.29,80.4,297.21,77.94z M209.57,453.98 c-2.72-1.63-30.97-9.49-30.97-9.49s-22.86,5.99-25.85,7.62c-2.99,1.63-12.2,23.97-12.2,23.97s-1.36,3.54,1.09,4.08 c2.45,0.54,8.93,14.53,30.43,13.45c21.5-1.09,41.75-14.15,41.75-14.15S212.29,455.62,209.57,453.98z" fill="#FFD79C"/></g><g id="change2_1"><path d="M132.21,130.88c0,7.39,2.46,11.08,1.23,14.78c-1.23,3.69-6.16,9.85-13.54,11.08 c-7.39,1.23-55.41,4.93-65.26,1.23s-12.31-7.39-12.31-7.39l4.93-22.16c0,0-3.69-1.23-16.01-8.62 c-12.31-7.39-14.78-12.31-13.54-14.78c0,0,14.78-24.63,27.09-30.78c12.31-6.16,27.09-6.16,27.09-6.16s18.47-3.69,28.32-3.69 s30.78-11.08,30.78-11.08l16.35,31.53c0.5,0.96,0.16,2.15-0.77,2.71l-22.97,13.78c0,0,2.46,3.69,3.69,11.08 C128.52,119.8,132.21,123.5,132.21,130.88z M336.62,220.77c-1.23-7.39-4.93-17.24-9.85-23.4c-4.93-6.16-6.16-19.7-11.08-27.09 s-98.51,7.39-98.51,7.39s-11.08,7.39-14.78,23.4c-3.69,16.01-6.16,20.93-8.62,32.01c-2.46,11.08-4.93,24.63-2.46,27.09 s27.09,7.39,50.48,7.39s75.11-8.62,87.42-14.78S344,241.71,344,238.01S337.85,228.16,336.62,220.77z M76.8,478.12 c-8.62-6.16-6.16-8.62-4.93-16.01c1.23-7.39-1.23-12.31,1.23-19.7s1.23-14.78,2.46-20.93c1.23-6.16,3.69-11.08-1.23-12.31 c-4.93-1.23-28.32-3.69-35.71-3.69s-9.85,3.69-9.85,3.69c-1.23,3.69,6.16,40.63,6.16,49.25c0,8.62,1.23,16.01,0,20.93 c-1.23,4.93,6.16,11.08,14.78,13.54c8.62,2.46,19.7,1.23,27.09,1.23C84.19,494.13,85.42,484.28,76.8,478.12z M201.17,444.88 c-12.31-6.16-18.47-7.39-19.7-13.54c-1.23-6.16,1.23-14.78,1.23-19.7s3.69-19.7,3.69-24.63c0-4.93,2.46-11.08,0-12.31 c-2.46-1.23-14.78-3.69-29.55-1.23s-16.01,3.69-16.01,12.31c0,3.89,1.23,11.08,0,16.01c-1.23,4.93,2.46,14.78,2.46,20.93 s3.69,11.08,2.46,17.24c-1.23,6.16,0,12.31,4.93,13.54c4.93,1.23,30.78,7.39,44.33,7.39S213.48,451.03,201.17,444.88z" fill="#51ACC5"/></g><g id="change3_1"><path d="M148.98,207.81c4.86,6.33,18.23,21.52,17.02,25.32c-1.22,3.8-12.16,6.33-26.74,15.19 c-14.59,8.86-36.47,24.05-38.9,25.32c-2.43,1.27-7.29-10.13-7.29-10.13s1.22,8.86-1.22,11.39c-2.43,2.53-6.08,2.53-32.82-1.27 c-26.74-3.8-36.47-11.39-40.11-13.93c-3.65-2.53,1.22-32.91,7.29-51.9s14.59-34.18,18.23-35.45c3.65-1.27,65.06-7.97,68.07-3.8 c3.65,5.06,9.72,11.39,18.23,17.72C139.26,192.62,144.12,201.48,148.98,207.81z M374.79,86.56c-3.69-3.69-29.55-17.24-35.71-17.24 s-78.81,0-102.2,12.31c0,0-3.69,3.69-7.39,12.31s-2.46,48.02-2.46,48.02s-13.54,23.4-17.24,38.17c0,0,11.08-2.46,25.86-7.39 c14.78-4.93,68.95-9.85,68.95-9.85s32.01-28.32,33.25-30.78c1.23-2.46,4.93-30.78,4.93-30.78s16.01-8.62,19.7-9.85 c3.69-1.23,19.7,1.23,20.93,0C384.64,90.25,378.48,90.25,374.79,86.56z" fill="#F1938F"/></g><g id="change4_1"><path d="M329.23,249.09c0,2.46-1.23,12.31-1.23,17.24c0,4.93-2.46,16.01-2.46,23.4c0,7.39-3.69,17.24-3.69,25.86 c0,8.62-1.23,14.78-2.46,20.93s-4.93,16.01-4.93,23.4s-2.46,20.93-3.69,34.48c0,0-12.31,4.93-24.63,6.16 c-12.31,1.23-20.93,1.23-20.93,1.23s-1.23-14.78-1.23-22.16s1.23-14.78,1.23-22.16s0-17.24,0-17.24s-2.46,8.62-3.69,16.01 c-1.23,7.39-1.23,14.78-3.69,22.16c-2.46,7.39-2.46,16.01-3.69,23.4c0,0-9.85,2.46-16.01,2.46c-6.16,0-11.08,2.46-18.47,1.23 c-7.39-1.23-11.08-1.23-11.08-1.23s-1.23-14.78,0-23.4c1.23-8.62,0-17.24,2.46-23.4c2.46-6.16,1.23-14.78,3.69-22.16 c2.46-7.39,1.23-14.78,0-23.4c-1.23-8.62-4.93-14.78-6.16-25.86c-1.23-11.08-2.52-15.22-3.11-22.39c-0.59-7.17-0.59-7.17-0.59-7.17 s11.08-2.46,23.4-1.23c12.31,1.23,46.61,9.05,46.61,9.05s16.18-6.58,26.03-9.05s12.31-6.16,19.7-7.39 C328,246.63,329.23,246.63,329.23,249.09z M169.15,252.79c-4.93-7.39-10.71-14.79-10.71-14.79s-11.13,4.41-16.22,7.14 c-5.08,2.73-10.01,7.65-19.86,12.58c-9.85,4.93-18.23,11.26-17.12,12.4c0,0,6.04,10.99,13.43,17.15 c7.39,6.16,9.85,12.31,14.78,14.78c4.93,2.46,11.08,6.16,11.08,9.85s-2.46,20.93-2.46,25.86c0,4.93,1.23,18.47,0,27.09 c-1.23,8.62-0.16,17-0.16,17s7.55,0.24,14.94-0.99s17.24,0,22.16-1.23c4.93-1.23,7.39-2.46,7.39-2.46s3.69-17.24,3.69-28.32 s2.46-24.63,2.46-36.94s-7.39-27.09-11.08-34.48S174.08,260.18,169.15,252.79z M62.03,272.49c-9.85-1.23-22.28-2.55-26.53-4.97 c-4.25-2.42-6.49-2.27-6.49-2.27s2.24,10.94,2.24,15.86c0,4.93,0,12.31,1.23,22.16c1.23,9.85,4.93,17.24,4.93,24.63 s0,14.78,0,20.93s-3.69,22.16-4.93,32.01c-1.23,9.85-0.6,2.6-0.6,12.45c0,9.85,0,16.01,0,16.01s23.4,9.85,43.1,1.23 c0,0-0.99-4.17,0.96-12c1.79-7.17,3.43-22.52,5.87-36.72c2.31-13.4,4.84-20.37,4.84-30.22s1.23-20.93,2.46-30.78 c1.23-9.85-0.09-24.86-0.09-24.86S71.88,273.72,62.03,272.49z M180.24,137.04c-2.46,7.39-4.93,22.16-3.69,27.09 c1.23,4.93,8.62,13.54,14.78,12.31c6.16-1.23,14.78-2.46,19.7-12.31c4.93-9.85,8.62-13.54,11.08-22.16 c2.46-8.62,7.39-17.24,7.39-18.47c0-1.23,16.01-3.69,17.24-6.16c1.23-2.46,3.9-9.9-1.03-12.37c-4.93-2.46-18.67,0.05-18.67,0.05 s8.68-13.2,8.03-29.99c0,0-19.12-0.79-24.04,0.44c-4.93,1.23-11.43,7.14-14.34,12.19c-2.9,5.05-6.6,17.36-9.06,23.52 C185.16,117.34,182.7,129.65,180.24,137.04z M352.62,95.18c0-3.89-13.06-0.57-15.53,1.89s-2.94,11.66-0.48,12.89 s3.69,1.23,3.69,1.23s-2.46,19.7-2.46,20.93s-16.73,15.5-18.47,17.24c-2.46,2.46-6.16,6.16-6.16,6.16s17.24,6.16,22.16-3.69 c4.93-9.85,9.85-13.54,11.08-20.93s4.93-8.62,6.16-20.93C353.85,97.64,352.62,96.41,352.62,95.18z M115.97,173.64l-5.79-15.57 l4.35-17.02c-6.62-0.92-9.39,3.39-16.78,5.85c-7.39,2.46-14.78,7.39-18.47,9.85c-3.69,2.46-12.31,3.69-18.71,1.32 c-6.4-2.37-13.04-4.35-13.04-4.35l-0.27,3.02c0,0-11.08-6.16-12.31-7.39s1.23-7.39,4.93-11.08c3.69-3.69,7.39-9.85,7.39-9.85 s-12.31-11.08-19.7-16.01s-9-4.33-9-4.33s-10.7,16.64-14.39,21.56c-3.69,4.93-4.93,11.08-3.69,22.16 c1.23,11.08,9.85,13.54,16.64,20.73c6.79,7.19,14.14,7.59,18.83,11.59c4.69,4,12.55,4.62,18.71,8.31s13.54,3.69,18.23,3.28 c4.69-0.42,16.25-5.74,16.25-5.74s3.69,1.23,7.39,2.46s6.16-3.69,6.06-6.86c-0.1-3.17-4.83-7.91-4.83-7.91s2.46-1.23,7.39-1.23 S115.97,173.64,115.97,173.64z M75.57,57c0,1.23-0.56,9.46-0.9,10.89c0,0,4.59,5.12,13.21,5.12c7.39,0,7.39-6.16,7.39-6.16 s-1.23-6.16,0-6.16c1.23,0,13.54,1.23,17.24-6.16c3.1-6.21,4.45-16.75,2.62-25.07c0.34,0.17,0.7,0.32,1.07,0.44 c3.69,1.23,7.39,1.23,7.39,1.23s9.85,2.46,17.24,6.16c7.39,3.69,14.78,6.16,14.78,7.39c0,1.23-6.16,3.69-9.85,4.93 c-3.69,1.23-13.67,6.28-13.67,6.28c-0.13,3.82,6.29,13.42,8.75,19.58c2.46,6.16,6.16,8.62,6.16,8.62s0,0,3.69-1.23 c3.69-1.23,3.69-3.69,12.31-7.39s13.54-8.62,16.01-11.08c2.46-2.46,7.39-6.16,11.08-9.85c3.69-3.69,4.93-12.31,2.46-17.24 c-2.46-4.93-11.08-9.85-16.01-11.08c-4.93-1.23-12.31-4.93-20.93-6.16c-8.62-1.23-20.93,0-27.09-2.46 c-6.16-2.46-13.54-2.46-17.24-2.46c-1.2,0-2.66,0.26-4.17,0.66c-5.76-5.23-14.63-8.78-26.61-5.58 c-18.47,4.93-22.16,20.93-19.7,29.55S75.57,55.77,75.57,57z M234.42,61.93c4.93,3.69,12.31,0,12.31,2.46s-2.46,9.85-2.46,9.85 l-7.07,0.57c0,0,0.8,2.52,2.25,5.6c7.13-3.08,17.51-5.3,28.92-6.91c-0.65-4.16-1.55-11.11-0.7-12.81 c1.23-2.46,9.85-16.01,9.85-22.16s-2.46-13.54-13.54-19.7s-27.09,0-30.78,4.93s-3.69,7.39-4.93,17.24 C227.03,50.85,229.49,58.24,234.42,61.93z" fill="#FFBA9C"/></g><g id="change5_1"><path d="M293.32,103.21c3.76-1.25,29.9-0.08,31.01-0.03c0.34,0.02,0.6,0.3,0.59,0.64 c-0.01,0.34-0.25,0.63-0.64,0.59c-9.33-0.42-27.72-0.98-30.56-0.03c-3.69,1.23-36.85,7.16-38.26,7.41 c-0.04,0.01-0.07,0.01-0.11,0.01c-0.29,0-0.55-0.21-0.6-0.51c-0.06-0.33,0.16-0.65,0.5-0.71 C255.58,110.52,289.71,104.41,293.32,103.21z M307.02,132.73c-15.91,1.14-31.47,2.37-46.85,4.93c-14.55,2.43-29.3,2.45-29.45,2.45 c-0.34,0-0.62,0.28-0.62,0.62s0.28,0.62,0.62,0.62c0.15,0,15-0.03,29.65-2.47c15.33-2.55,30.85-3.78,46.73-4.92 c16.97-1.21,26.87-0.01,26.97,0c0.32,0.03,0.64-0.2,0.69-0.53c0.04-0.34-0.2-0.65-0.53-0.69 C334.13,132.72,324.12,131.51,307.02,132.73z M186.76,152.22c0.16,0,0.32-0.06,0.44-0.19c0.19-0.2,4.65-4.84,7.13-9.79 c1.49-2.99,4.42-6.49,7-9.57c1.59-1.9,3.09-3.7,4.05-5.14c1.18-1.78,3.34-3.63,5.43-5.42c2.15-1.84,4.37-3.75,5.65-5.67 c2.41-3.61,7.3-8.5,10.91-10.91c0.26-0.17,0.33-0.5,0.21-0.77c0.01-0.15,0.03-0.29,0.04-0.44c1.07-1.2,3.17-3.49,4.34-6.69 c2.47-6.77,3.69-14.78,3.69-14.78c1.25-0.66,3.69-2.46,3.69-2.46l-1.23-6.16c0,0-2.81-1.24-6.16-1.23 c-3.25,0.01-7.03,1.25-7.39,1.23c0.12,3.22,2.67,25.42,2.51,30.18c-0.13-0.01-0.27,0.01-0.39,0.09 c-3.79,2.52-8.73,7.47-11.25,11.25c-0.28,0.42-0.62,0.84-0.99,1.27c0.59-1.78,1.71-4.88,3.29-8.04c2.5-5,2.53-7.56,2.53-7.66 c0-0.34-0.27-0.61-0.61-0.61c-0.31-0.01-0.62,0.27-0.62,0.61c0,0.02-0.05,2.42-2.4,7.12c-2.46,4.92-3.84,9.73-3.85,9.78 c-0.05,0.16-0.02,0.32,0.05,0.46c-0.89,0.84-1.86,1.67-2.82,2.5c-2.15,1.84-4.37,3.75-5.65,5.67c-0.92,1.38-2.4,3.15-3.97,5.03 c-2.62,3.14-5.59,6.7-7.15,9.81c-2.39,4.78-6.87,9.44-6.91,9.49c-0.24,0.24-0.23,0.63,0.01,0.87 C186.45,152.16,186.61,152.22,186.76,152.22z M328.69,253.04c0.18-0.08,0.38-0.17,0.54-0.25c6.31-3.16,10.03-5.99,12.16-8.5 c-8.63,0.55-13.33,2.79-13.33,2.79L328.69,253.04z M196.24,258.94c-1.57,0-3.25,0.5-4.79,1.34c1.32,1.08,6.61,2.59,14.09,3.96 l-0.67-7.76C204.86,256.48,201.17,258.94,196.24,258.94z M322.01,189.4c-8.25-2.36-12.46-10.74-12.5-10.82 c-0.01-0.01-0.02-0.02-0.03-0.04l9.9-0.86c0,0,0-8.62-6.97-21.73c-4.51,4.04-7.81,6.95-7.81,6.95s-54.18,4.93-68.95,9.85 c-14.78,4.93-25.86,7.39-25.86,7.39c3.69-14.78,17.24-38.17,17.24-38.17s-0.16-5.22-0.19-12.26c-1.56,3.42-3.47,7.84-4.73,12.26 c-2.46,8.62-6.16,12.31-11.08,22.16c-1.13,2.26-2.46,4.04-3.9,5.5c-0.35,7.76-1.03,17.9-1.03,17.9l66.31-5.77 c-0.03,0.09-0.04,0.19-0.02,0.29c0.01,0.04,0.82,4.33,0.82,6.71c0,1.07,0.22,2.34,0.47,3.8c0.34,1.98,0.76,4.45,0.76,7.28v5.92 l0.89-0.45c0.31-0.16,7.68-3.92,8.95-11.53c1.25-7.5,0-10.12-0.06-10.23c-0.15-0.3-0.52-0.42-0.82-0.28 c-0.3,0.15-0.43,0.51-0.29,0.82c0.01,0.02,1.11,2.48-0.05,9.48c-0.91,5.48-5.45,8.88-7.4,10.11v-3.85c0-2.94-0.43-5.46-0.78-7.49 c-0.24-1.41-0.45-2.62-0.45-3.59c0-2.49-0.81-6.76-0.84-6.94c-0.01-0.06-0.04-0.11-0.07-0.16l34.86-3.03 c-0.06,0.15-0.06,0.33,0.02,0.49c0.18,0.36,4.49,8.95,13.27,11.46c0.06,0.02,0.11,0.02,0.17,0.02c0.27,0,0.51-0.18,0.59-0.45 C322.53,189.83,322.34,189.49,322.01,189.4z M220.85,187.61c0.34-0.03,0.59-0.32,0.56-0.66c-0.03-0.34-0.33-0.59-0.66-0.56 c-8.95,0.72-14.96,13.88-15.21,14.44c-0.14,0.31,0,0.67,0.31,0.81c0.08,0.04,0.17,0.05,0.25,0.05c0.23,0,0.46-0.14,0.56-0.36 C206.72,201.19,212.62,188.27,220.85,187.61z M247.66,114.17c-0.02,0-2.21,0.09-4.63,0.09c-2.49,0-9.65,1.19-9.95,1.24 c-0.34,0.06-0.56,0.37-0.51,0.71c0.05,0.3,0.31,0.51,0.61,0.51c0.03,0,0.07,0,0.1-0.01c0.07-0.01,7.37-1.22,9.75-1.22 c2.45,0,4.66-0.09,4.68-0.09c0.34-0.01,0.6-0.3,0.59-0.64S248.03,114.13,247.66,114.17z M233.18,111.8h9.85 c3.49,0,4.98,0.57,4.99,0.57c0.08,0.03,0.15,0.04,0.23,0.04c0.24,0,0.47-0.15,0.57-0.39c0.13-0.32-0.03-0.67-0.34-0.8 c-0.07-0.03-1.68-0.66-5.45-0.66h-9.85c-0.34,0-0.62,0.28-0.62,0.62C232.57,111.52,232.84,111.8,233.18,111.8z M232.57,106.23 c-0.02,0.34,0.25,0.63,0.59,0.64c0.06,0,5.89,0.28,9.56,0.28c3.34,0,5.01,1.84,5.08,1.92c0.12,0.14,0.29,0.21,0.47,0.21 c0.14,0,0.29-0.05,0.4-0.15c0.26-0.22,0.28-0.61,0.06-0.87c-0.08-0.1-2.08-2.34-6.01-2.34c-3.64,0-9.44-0.28-9.5-0.28 C232.87,105.62,232.59,105.89,232.57,106.23z M247.74,38.1c0-0.78-0.63-1.41-1.41-1.41c-0.78,0-1.41,0.63-1.41,1.41 c0,0.78,0.63,1.41,1.41,1.41C247.1,39.51,247.74,38.88,247.74,38.1z M234.35,39.59c0-0.78-0.63-1.41-1.41-1.41 c-0.78,0-1.41,0.63-1.41,1.41c0,0.78,0.63,1.41,1.41,1.41C233.72,41,234.35,40.37,234.35,39.59z M235.16,46.79 c1.26,0,2.66-0.29,3.24-0.66c0.29-0.18,0.38-0.56,0.2-0.85c-0.18-0.29-0.56-0.38-0.85-0.2c-0.67,0.42-2.76,0.58-3.58,0.39 c1.37-1.44,3.04-4.5,3.11-4.63c0.16-0.3,0.05-0.67-0.25-0.84c-0.3-0.16-0.67-0.05-0.83,0.25c-0.02,0.03-1.76,3.21-3.02,4.47 c-0.56,0.56-0.48,1.11-0.22,1.44C233.31,46.61,234.19,46.79,235.16,46.79z M238.51,52.03c0.23,0,5.7-0.05,6.7-4.04 c0.08-0.33-0.12-0.66-0.45-0.75c-0.34-0.09-0.66,0.12-0.75,0.45c-0.76,3.06-5.45,3.1-5.5,3.1c-0.34,0-0.61,0.28-0.61,0.62 C237.9,51.75,238.17,52.03,238.51,52.03z M244.89,27.64c-2.82,0.44-4.43,2.64-4.49,2.74c-0.2,0.28-0.13,0.66,0.14,0.86 c0.11,0.08,0.23,0.12,0.36,0.12c0.19,0,0.38-0.09,0.5-0.25c0.01-0.02,1.39-1.89,3.69-2.24c1.62-0.24,3.34,0.3,5.11,1.63 c0.27,0.2,0.66,0.15,0.86-0.12c0.2-0.27,0.15-0.66-0.12-0.86C248.88,27.96,246.85,27.34,244.89,27.64z M230.31,32.92 c2.53-1.26,4.41,0.55,4.5,0.63c0.12,0.12,0.28,0.18,0.43,0.18c0.16,0,0.32-0.06,0.44-0.18c0.24-0.24,0.24-0.63,0-0.87 c-0.88-0.88-3.25-2.19-5.92-0.86c-0.3,0.15-0.43,0.52-0.28,0.83C229.64,32.95,230.01,33.07,230.31,32.92z M205.2,68.85 c0.32-0.1,0.5-0.45,0.4-0.77c-0.1-0.33-0.45-0.5-0.77-0.4c-1.04,0.33-4.15,0.98-4.77-0.31c-0.31-0.64,0.22-2.45,1.63-4.37 c1.46-1.98,3.14-3.16,4.33-2.99c0.25,0.03,0.46,0.19,0.66,0.47c1.58,2.28,0.76,10.25,0.18,12.89c-0.55,2.49-4.14,3.51-4.17,3.52 c-0.33,0.09-0.52,0.43-0.43,0.76c0.07,0.27,0.32,0.45,0.59,0.45c0.05,0,0.11-0.01,0.16-0.02c0.18-0.05,4.35-1.22,5.05-4.44 c0.49-2.23,1.59-11.02-0.37-13.86c-0.4-0.57-0.9-0.91-1.5-0.99c-2.44-0.35-4.83,2.57-5.49,3.48c-1.24,1.69-2.44,4.18-1.75,5.63 C200.14,70.39,204.69,69.02,205.2,68.85z M254.39,22.24c-0.09,11.66,6.24,14.83,6.24,14.83c0.54-4.25,7.32-6.78,9.22-0.45 c1.9,6.33-2.62,7.32-3.44,12.3c-0.81,4.97,2.26,10.22,2.26,10.22l2.53-3.35c0,0,0.81,3.07,3.35,3.98c2.53,0.9,1.81,2.35,5.97,3.89 c4.16,1.54,8.77-0.54,8.77-0.54s-1.81-1.9-2.62-6.06c-0.81-4.16,0.09-12.75,2.53-16.37c2.44-3.62,5.43-14.92,5.06-17.36 s1.45-13.29-2.26-15.64c-3.71-2.35-6.42-5.97-11.03-7.23c-4.61-1.27-13.11,0.27-16.55,3.16c-3.44,2.89-3.26,6.78-3.71,6.78 s-5.95-1.74-9.75-0.38c-3.8,1.36-4.35,1.74-7.16,2.1c-2.8,0.36-3.44,1.44-8.32,5.78c-4.88,4.34-3.07,6.96-3.07,6.96 C239.29,26.4,254.39,22.24,254.39,22.24z M155.53,45.3c0.02,0,2.12,0.32,5.9,2.98c4.11,2.89,9.02,2.92,9.22,2.92 c0.34,0,0.62-0.28,0.62-0.62c0-0.34-0.28-0.62-0.62-0.62c-0.05,0-4.72-0.03-8.52-2.7c-4.08-2.87-6.36-3.18-6.46-3.19 c-0.34-0.04-0.64,0.2-0.68,0.53C154.96,44.95,155.19,45.26,155.53,45.3z M108.67,35.98c-0.42,0-0.76,0.68-0.76,1.51 s0.34,1.51,0.76,1.51s0.76-0.68,0.76-1.51S109.09,35.98,108.67,35.98z M96.01,36.63c-0.42,0-0.76,0.68-0.76,1.51 s0.34,1.51,0.76,1.51s0.76-0.68,0.76-1.51S96.43,36.63,96.01,36.63z M103.3,45.03c0.03,0.32,0.3,0.55,0.61,0.55 c0.02,0,0.04,0,0.06,0c3.67-0.39,3.99-1.1,4.1-1.33c0.12-0.27,0.09-0.58-0.09-0.83c-0.55-0.78-2.35-2.78-2.42-2.87 c-0.23-0.25-0.62-0.27-0.87-0.05c-0.25,0.23-0.27,0.62-0.05,0.87c0.02,0.02,1.39,1.55,2.08,2.42c-0.55,0.2-1.73,0.44-2.88,0.56 C103.51,44.39,103.26,44.69,103.3,45.03z M97.5,48.09c-0.18-0.29-0.56-0.37-0.85-0.19c-0.29,0.18-0.37,0.56-0.19,0.85 c0.02,0.03,1.53,2.34,4.45,2.34c0.92,0,1.97-0.23,3.16-0.82c0.3-0.15,0.43-0.52,0.28-0.83c-0.15-0.3-0.52-0.43-0.83-0.28 C99.56,51.16,97.59,48.22,97.5,48.09z M82.92,57.73c0.87,0,1.19-0.97,0.43-6.38c-0.76-5.41,0.32-15.58,0.32-15.58 s5.19-2.27,8.76-7.25c3.57-4.98,5.3-13.63,5.3-13.63l3.38,2.63c-2.78,1.66-4.47,4.13-4.62,6.8c-0.12,1.97,0.63,3.75,2.01,4.77 c2.53,1.87,10.17-0.21,12.45-0.89c0.97,1.81,3.9,2.12,4.04,2.13c0.02,0,0.04,0,0.06,0c0.04,0,0.08-0.01,0.12-0.02 c0.46,2.43,1.94,12.12-1.53,21.58c0,0,6.38,1.84,7.14,0.54c0.76-1.3,0.11-17.53-1.41-21.64l-3.74-0.94 c0.01-0.03,0.02-0.06,0.03-0.09c0.03-0.34-0.21-0.64-0.55-0.67c-0.79-0.08-2.9-0.56-3.19-1.8l-0.15-0.65l-0.63,0.2 c-3.67,1.17-10.15,2.53-11.9,1.24c-0.34-0.25-0.61-0.59-0.84-0.96c1.84-0.01,7.65-0.18,10.68-1.8c0.3-0.16,0.41-0.53,0.25-0.83 c-0.16-0.3-0.53-0.41-0.83-0.25c-2.96,1.58-9.18,1.66-10.43,1.66c-0.09,0-0.15,0-0.18,0c-0.12-0.48-0.19-0.97-0.16-1.51 c0.01-0.24,0.05-0.49,0.1-0.73c1.44-0.04,7.26-0.31,10.41-1.78c0.31-0.14,0.44-0.51,0.3-0.82c-0.14-0.31-0.51-0.44-0.82-0.3 c-2.66,1.24-7.64,1.57-9.51,1.65c0.65-1.54,1.93-2.93,3.73-3.96c0.29-0.16,0.39-0.52,0.24-0.81c4.49-2.23,9.1-2.5,9.1-2.5 c-9.4-19.11-41.88-8.04-46.97,0.07S53.5,37.07,59.99,47.78S82.06,57.73,82.92,57.73z M98.83,30.82c-4.49-0.94-6.95,1.83-7.05,1.95 c-0.22,0.26-0.19,0.65,0.06,0.87c0.12,0.1,0.26,0.15,0.4,0.15c0.17,0,0.34-0.07,0.47-0.21c0.02-0.02,2.08-2.33,5.87-1.55 c0.34,0.07,0.66-0.14,0.73-0.48C99.37,31.21,99.16,30.89,98.83,30.82z M111.95,32.06c0.11,0.21,0.32,0.32,0.54,0.32 c0.1,0,0.2-0.02,0.29-0.07c0.3-0.16,0.41-0.54,0.25-0.83c-0.78-1.44-1.78-2.27-2.97-2.46c-1.91-0.31-3.51,1.19-3.58,1.26 c-0.25,0.23-0.26,0.62-0.02,0.87c0.23,0.25,0.62,0.26,0.87,0.03c0.01-0.01,1.24-1.15,2.55-0.94 C110.66,30.36,111.36,30.98,111.95,32.06z M77.57,172.47c-3.02,0.49-5.87,0.95-7.22,0.87c-1.67-0.1-5.5-3.31-8.58-5.89 c-2.58-2.16-4.81-4.02-6.17-4.57c-2.86-1.15-7.85-6.5-7.9-6.55c-0.23-0.25-0.62-0.27-0.87-0.03c-0.25,0.23-0.26,0.62-0.03,0.87 c0.21,0.23,5.22,5.61,8.34,6.86c1.18,0.47,3.44,2.37,5.84,4.37c3.55,2.97,7.22,6.05,9.3,6.18c1.49,0.1,4.27-0.36,7.49-0.88 c3.95-0.64,8.43-1.37,11.08-1.14c4.51,0.38,8.36,5.45,8.4,5.5c0.12,0.16,0.31,0.25,0.49,0.25c0.13,0,0.26-0.04,0.37-0.12 c0.27-0.2,0.33-0.59,0.12-0.86c-0.17-0.23-4.22-5.57-9.28-5.99C86.15,171.08,81.59,171.82,77.57,172.47z M98.37,164.48 c-0.33-0.1-0.67,0.08-0.77,0.4c-0.05,0.15-1.12,3.66,0.82,5.12c0.11,0.08,0.24,0.12,0.37,0.12c0.19,0,0.37-0.08,0.49-0.25 c0.2-0.27,0.15-0.66-0.12-0.86c-1.04-0.78-0.63-2.98-0.39-3.77C98.87,164.92,98.69,164.58,98.37,164.48z M110.24,157.78 c4.58-0.4,8.07-0.78,9.66-1.04c7.39-1.23,12.31-7.39,13.54-11.08c-4.93-2.24-18.93-4.62-18.93-4.62L110.24,157.78z M66.61,125.27 c4.43-6.06,12.11-13.97,12.34-25.85c0.23-11.88-5.76-28.88-7.07-31.33c-1.31-2.44-14.59-2.21-15.29,1.75 c-0.33,1.89,6.52,26.09,4.89,35.63c-1.63,9.55-14.23,22.95-14.23,22.95s-3.47,5.7-2.07,8.02 C46.58,138.78,62.18,131.32,66.61,125.27z M105.97,63.31c-4.66-1.63-11.18-0.93-9.78,1.63c0,0,11.65,12.81,17.7,21.19 c6.06,8.38,8.24,12.69,9.71,15.19c1.47,2.51,3.33,1.58,1.7-7.51C123.67,84.74,110.63,64.95,105.97,63.31z M96.63,230.3 c0.12-2.23,0.23-4.34,0.65-6.44c0.94-4.69,7.18-7.87,7.25-7.9c0.3-0.15,0.43-0.52,0.27-0.83c-0.15-0.3-0.52-0.43-0.83-0.28 c-0.28,0.14-6.85,3.48-7.9,8.76c-0.44,2.19-0.55,4.34-0.67,6.61c-0.16,3.04-0.34,6.48-1.35,10.79c-0.91,3.89-0.88,7.29-0.84,10.89 c0.03,3.49,0.07,7.1-0.76,11.48c-0.06,0.33,0.16,0.66,0.49,0.72c0.04,0.01,0.08,0.01,0.11,0.01c0.29,0,0.55-0.21,0.6-0.5 c0.85-4.5,0.81-8.17,0.78-11.72c-0.03-3.52-0.07-6.85,0.81-10.6C96.29,236.89,96.47,233.39,96.63,230.3z M153.49,228.83 c2.22-1.45,4.14-2.71,6.82-2.71c0.34,0,0.62-0.28,0.62-0.62s-0.28-0.62-0.62-0.62c-3.04,0-5.21,1.41-7.5,2.91 c-2.29,1.49-4.66,3.04-8.22,3.41c-4.31,0.45-6.25,1.95-8.71,3.85c-1.85,1.43-4.14,3.2-8.15,5.04c-5.53,2.54-8.58,5.03-11.53,7.45 c-2.07,1.69-4.21,3.45-7.21,5.21c-7.37,4.32-12.86,12.97-13.09,13.33c-0.18,0.29-0.09,0.67,0.19,0.85c0.1,0.06,0.22,0.1,0.33,0.1 c0.2,0,0.4-0.1,0.52-0.29c0.05-0.09,5.56-8.76,12.67-12.93c3.09-1.81,5.27-3.59,7.37-5.32c3.02-2.47,5.87-4.81,11.26-7.28 c4.14-1.9,6.5-3.72,8.39-5.19c2.39-1.85,4.12-3.19,8.08-3.6C148.58,232.03,151.19,230.33,153.49,228.83z M90.21,262.67 c-0.86,0.75-1.95,0.59-4.13,0.19c-1.71-0.32-3.83-0.7-6.6-0.59c-2.56,0.13-5.16-0.71-8.15-1.65c-3.94-1.24-8.4-2.65-14.55-2.65 c-5.62,0-9.64-1.23-13.52-2.42c-3.57-1.09-6.94-2.12-11.22-2.12c-8.37,0-11.58-4.49-11.61-4.53c-0.19-0.28-0.58-0.35-0.86-0.16 c-0.28,0.19-0.35,0.57-0.16,0.85c0.14,0.21,3.57,5.07,12.63,5.07c4.1,0,7.38,1.01,10.86,2.07c3.97,1.22,8.08,2.47,13.88,2.47 c5.95,0,10.32,1.38,14.18,2.59c3.1,0.98,5.78,1.82,8.58,1.71c2.62-0.11,4.68,0.27,6.33,0.57c1.01,0.19,1.92,0.35,2.74,0.35 c0.91,0,1.71-0.21,2.42-0.83c0.26-0.22,0.28-0.61,0.06-0.87C90.85,262.47,90.47,262.45,90.21,262.67z M61.14,344.17 c0.05,0.01,0.1,0.02,0.15,0.02c0.28,0,0.53-0.19,0.6-0.47c0.08-0.33-0.12-0.66-0.45-0.75c-2.23-0.56-4.83-6.12-5.64-8.21 c-0.12-0.32-0.48-0.48-0.8-0.35c-0.32,0.12-0.47,0.48-0.35,0.8C54.97,336.03,57.89,343.36,61.14,344.17z M179.08,310.02 c0.06,0.02,0.12,0.03,0.17,0.03c0.27,0,0.51-0.17,0.59-0.44c0.1-0.33-0.09-0.67-0.42-0.76c-4.03-1.19-6.97-5.28-7-5.32 c-0.2-0.28-0.58-0.34-0.86-0.15c-0.28,0.2-0.34,0.58-0.15,0.86C171.56,304.41,174.64,308.71,179.08,310.02z M235.84,343.2 c0.25-0.23,0.27-0.62,0.05-0.87c-2.58-2.86-2.91-8.45-2.91-8.51c-0.02-0.34-0.3-0.61-0.65-0.58c-0.34,0.02-0.6,0.31-0.58,0.65 c0.01,0.25,0.35,6.08,3.22,9.27c0.12,0.13,0.29,0.2,0.46,0.2C235.57,343.36,235.72,343.31,235.84,343.2z M296.13,342.44 c0.11,0,0.22-0.03,0.32-0.09c0.29-0.18,0.39-0.55,0.21-0.85c-0.88-1.47-3.3-7.52-3.33-7.58c-0.13-0.32-0.49-0.47-0.8-0.34 c-0.32,0.13-0.47,0.48-0.34,0.8c0.1,0.25,2.48,6.2,3.42,7.75C295.71,342.34,295.92,342.44,296.13,342.44z M250.14,466.91 c0-4.29,3.07-44.15,3.68-51.51s3.05-11.93,0.3-13.63c-2.75-1.7-9.49,0.45-17.77,0.45c-8.28,0-24-0.26-27.79,2.02 c0,0-1.64,2.58-0.72,10.55c0.92,7.97,7.36,38.32,7.66,45.07c0.31,6.74,1.23,14.41,2.76,15.64c1.53,1.23,26.37,19.62,35.56,17.47 c9.2-2.15,6.44-11.04,3.37-15.94C254.13,472.12,250.14,471.2,250.14,466.91z M310.76,394.39c-5.13-1.67-20.76,3.23-26.28,3.23 c-5.52,0-11.89,4.32-19.28,4.15c-2.8-0.06-0.34,9.03-0.65,20.07c-0.31,11.04,1.84,18.39,1.53,26.98 c-0.31,8.58,1.53,13.49,1.84,18.39c0.31,4.91,0.92,7.36,7.97,10.12c7.05,2.76,19.62,9.2,28.82,8.89c9.2-0.31,7.97-9.2,4.29-13.49 c-3.68-4.29-9.5-6.44-9.81-9.5c-0.31-3.07-0.31,0.31-0.31-3.07s10.73-44.15,10.73-50.59C309.62,403.14,315.88,396.06,310.76,394.39 z M270.19,308.06c-0.59,3.42-1.17,6.83-1.72,10.18c-2.2,13.57-3.87,21.76-3.88,21.85c-0.07,0.33,0.15,0.66,0.48,0.73 c0.04,0.01,0.08,0.01,0.12,0.01c0.29,0,0.54-0.2,0.6-0.49c0.02-0.08,1.68-8.29,3.89-21.89c0.54-3.34,1.13-6.75,1.72-10.17 c1.8-10.5,3.67-21.36,4.24-30.39c0.63-10.1,0.22-13.2,0.05-13.99c0.5-1.57,0.58-2.94,0.68-4.67c0.14-2.36,0.33-5.59,1.74-11.21 c1.82-7.29,0.36-11.28-0.6-13.92c-0.34-0.93-0.61-1.66-0.61-2.24c0-0.76,0.49-1.21,1.5-2.08c1.34-1.15,3.18-2.72,4.62-6.32 c2.35-5.88,5.89-8.31,5.93-8.34c0.28-0.19,0.36-0.57,0.17-0.85c-0.19-0.28-0.57-0.36-0.85-0.17c-0.16,0.1-3.88,2.64-6.39,8.9 c-1.33,3.32-3.03,4.77-4.27,5.84c-1.04,0.89-1.93,1.65-1.93,3.01c0,0.79,0.3,1.62,0.68,2.66c0.92,2.5,2.3,6.27,0.57,13.2 c-1.43,5.74-1.63,9.03-1.77,11.44c-0.11,1.76-0.18,3.04-0.68,4.52l-0.06,0.2l0.06,0.19c0.03,0.09,0.66,2.35-0.05,13.75 C273.85,286.77,271.99,297.59,270.19,308.06z M161.38,389.21c2.69-1.13,5.32-0.91,8.1-0.68c4.04,0.34,8.62,0.72,14.26-2.97 c0.28-0.19,0.36-0.57,0.18-0.85c-0.19-0.28-0.57-0.36-0.85-0.18c-5.29,3.46-9.46,3.11-13.49,2.77c-2.94-0.25-5.72-0.48-8.68,0.77 c-6.6,2.78-17.55,1.76-17.66,1.75c-0.35-0.02-0.64,0.22-0.67,0.55c-0.03,0.34,0.22,0.64,0.55,0.67c0.19,0.02,2.22,0.21,5.01,0.21 C152.02,391.26,157.38,390.9,161.38,389.21z M73.12,412.27c0.33-0.1,0.51-0.44,0.41-0.77s-0.44-0.51-0.77-0.41 c-3.43,1.03-18.01,2.13-25.68,2.13c-7.27,0-14.32-4.52-14.39-4.57c-0.28-0.19-0.67-0.1-0.85,0.18c-0.19,0.29-0.1,0.67,0.18,0.85 c0.3,0.19,7.42,4.77,15.06,4.77C54.93,414.45,69.51,413.36,73.12,412.27z M57.42,479.95c-0.24,0.24-0.24,0.63,0,0.87 c0.12,0.12,0.28,0.18,0.44,0.18s0.31-0.06,0.43-0.18c0.04-0.04,4.27-4.15,12.52-4.49c0.34-0.01,0.6-0.3,0.59-0.64 c-0.01-0.34-0.29-0.59-0.64-0.59C62,475.47,57.61,479.77,57.42,479.95z M188.44,445.29h7.18c0.34,0,0.62-0.28,0.62-0.62 s-0.28-0.62-0.62-0.62h-7.18c-0.34,0-0.62,0.28-0.62,0.62S188.1,445.29,188.44,445.29z M203.67,455.23 c-6.83,2.51-25.03,1.26-35.55-1.46c-11.01-2.84-20.39-5.01-20.49-5.03c-0.33-0.08-0.66,0.13-0.74,0.46 c-0.08,0.33,0.13,0.66,0.46,0.74c0.09,0.02,9.46,2.19,20.46,5.02c6.72,1.74,16.22,2.87,24.19,2.87c4.97,0,9.35-0.44,12.09-1.45 c0.32-0.12,0.48-0.47,0.36-0.79C204.34,455.28,203.99,455.11,203.67,455.23z M81.16,488.39c-0.2,0.01-20.15,1.4-30.36-0.71 c-9.88-2.04-11.66-9.28-11.74-9.59c-0.08-0.33-0.41-0.54-0.74-0.46c-0.33,0.08-0.54,0.4-0.46,0.73c0.08,0.34,2.01,8.31,12.69,10.52 c4.54,0.94,10.82,1.21,16.52,1.21c7.34,0,13.72-0.44,14.18-0.48c0.34-0.02,0.59-0.32,0.57-0.66 C81.79,488.62,81.5,488.36,81.16,488.39z M21.74,70.44c-0.09-0.33-0.43-0.52-0.75-0.43c-0.33,0.09-0.52,0.43-0.43,0.75 c0.51,1.89,1.33,7.11-0.95,8.63c-0.46,0.31-0.65,0.16-0.75,0.08c-1.4-1.05-1.76-7.69-0.87-10.49c0.65-2.03,3.67-3.3,5.31-3.04 c0.84,0.13,0.84,0.56,0.84,0.75c0,0.95-0.46,3.41-0.94,6.01c-0.91,4.92-1.95,10.49-1.45,12.87c0.22,1.07,0.77,1.87,1.61,2.38 c0.78,0.47,1.7,0.61,2.51,0.61c1.1,0,1.99-0.25,2.06-0.27c0.33-0.09,0.51-0.44,0.42-0.76c-0.09-0.33-0.43-0.51-0.76-0.42 c-0.02,0-2.21,0.62-3.59-0.21c-0.55-0.33-0.89-0.85-1.04-1.58c-0.45-2.14,0.65-8.07,1.45-12.4c0.54-2.89,0.96-5.17,0.96-6.23 c0-1.05-0.7-1.78-1.88-1.96c-2.09-0.33-5.81,1.16-6.67,3.88c-0.89,2.81-0.85,10.22,1.3,11.84c0.37,0.28,1.15,0.64,2.17-0.04 C23.77,78.09,21.83,70.75,21.74,70.44z M251.12,62.37c-1.83,0.52-3.71,0.89-5.39,1.15c0.62,0.09,1,0.32,1,0.87 c0,1.01-0.42,2.85-0.91,4.67C249.69,68.03,256.19,60.92,251.12,62.37z M94.84,64.03c-0.17-1.52-0.2-3.11,0.33-3.3 c-1.58-0.25-3.49-0.59-5.24-1.03C87.04,58.98,90.44,62.56,94.84,64.03z M83.05,186.31c0.03-0.01,3.25-0.79,7.2-0.16 c4.3,0.69,8.92,3.63,8.92,5.19c0,0.34,0.28,0.62,0.62,0.62s0.62-0.28,0.62-0.62c0-2.74-6.04-5.77-9.95-6.4 c-4.21-0.67-7.55,0.14-7.69,0.18c-0.33,0.08-0.53,0.42-0.45,0.75C82.38,186.19,82.72,186.39,83.05,186.31z M101.65,188.41 c0.02,0.32,0.29,0.57,0.61,0.57c0.01,0,0.03,0,0.04,0c0.34-0.02,0.59-0.32,0.57-0.66c-0.19-2.66-5.35-5.36-9.65-7.15 c-4.12-1.71-9.28-0.41-9.49-0.36c-0.33,0.09-0.53,0.42-0.44,0.75c0.08,0.33,0.42,0.53,0.75,0.44c0.05-0.01,4.98-1.25,8.71,0.3 C98.13,184.55,101.54,186.89,101.65,188.41z M84.93,176.23c-0.03,0.34,0.23,0.64,0.56,0.66c0.1,0.01,10.1,0.86,14.52,5.13 c0.12,0.12,0.27,0.17,0.43,0.17c0.16,0,0.32-0.06,0.44-0.19c0.24-0.24,0.23-0.63-0.02-0.87c-4.74-4.57-14.85-5.43-15.27-5.47 C85.26,175.65,84.96,175.89,84.93,176.23z M335.5,107.43c-0.32,0.11-0.49,0.46-0.38,0.78c0.11,0.32,0.47,0.49,0.78,0.38 c0.08-0.03,7.81-2.62,10.49,0.42c0.12,0.14,0.29,0.21,0.46,0.21c0.15,0,0.29-0.05,0.41-0.15c0.25-0.22,0.28-0.61,0.05-0.87 C344.1,104.56,335.85,107.31,335.5,107.43z M335.05,103.87c-0.31,0.14-0.45,0.5-0.31,0.81c0.1,0.23,0.33,0.36,0.56,0.36 c0.08,0,0.17-0.02,0.25-0.05c0.09-0.04,9.41-4.16,12.85-0.72c0.24,0.24,0.63,0.24,0.87,0c0.24-0.24,0.24-0.63,0-0.87 C345.24,99.36,335.47,103.68,335.05,103.87z M349.5,97.9c-5.81-2.69-13.78,2.02-14.12,2.22c-0.29,0.17-0.39,0.55-0.21,0.84 c0.12,0.19,0.32,0.3,0.53,0.3c0.11,0,0.22-0.03,0.32-0.09c0.08-0.05,7.76-4.58,12.97-2.16c0.31,0.14,0.67,0.01,0.82-0.3 C349.95,98.41,349.81,98.04,349.5,97.9z M174.5,460.01c-1.26,0.68-2.77,1.63-4.38,2.64c-2.73,1.72-5.83,3.66-7.1,3.82 c-0.81,0.1-0.94-0.06-1.43-0.66c-0.5-0.61-1.18-1.45-2.84-2.28c-3.06-1.53-5.71-5.98-5.73-6.02c-0.17-0.29-0.55-0.39-0.84-0.22 c-0.29,0.17-0.39,0.55-0.22,0.84c0.11,0.19,2.85,4.8,6.24,6.5c1.43,0.71,1.99,1.4,2.44,1.95c0.46,0.56,0.91,1.08,1.93,1.12 c0.37,2.46,1.78,11.3,3.33,13.1c1.03,1.21,0.07,6.65-0.79,9.8c-0.09,0.33,0.1,0.67,0.43,0.76c0.05,0.01,0.11,0.02,0.16,0.02 c0.27,0,0.52-0.18,0.59-0.45c0.4-1.47,2.29-8.88,0.53-10.93c-1.07-1.25-2.37-7.93-3.04-12.46c1.64-0.5,4.25-2.14,6.99-3.86 c1.59-1,3.09-1.94,4.31-2.6c0.3-0.16,0.41-0.54,0.25-0.83C175.17,459.96,174.8,459.85,174.5,460.01z" fill="#022E71"/></g></svg>